<svg id="visual" viewBox="0 0 900 600" width="900" height="600" xmlns="http://www.w3.org/2000/svg" xmlns:xlink="http://www.w3.org/1999/xlink" version="1.1"><rect x="0" y="0" width="900" height="600" fill="#004cbb"></rect><defs><linearGradient id="grad1_0" x1="33.3%" y1="0%" x2="100%" y2="100%"><stop offset="20%" stop-color="#17c1e8" stop-opacity="1"></stop><stop offset="80%" stop-color="#17c1e8" stop-opacity="1"></stop></linearGradient></defs><defs><linearGradient id="grad1_1" x1="33.3%" y1="0%" x2="100%" y2="100%"><stop offset="20%" stop-color="#17c1e8" stop-opacity="1"></stop><stop offset="80%" stop-color="#00b2e6" stop-opacity="1"></stop></linearGradient></defs><defs><linearGradient id="grad1_2" x1="33.3%" y1="0%" x2="100%" y2="100%"><stop offset="20%" stop-color="#00a2e3" stop-opacity="1"></stop><stop offset="80%" stop-color="#00b2e6" stop-opacity="1"></stop></linearGradient></defs><defs><linearGradient id="grad1_3" x1="33.3%" y1="0%" x2="100%" y2="100%"><stop offset="20%" stop-color="#00a2e3" stop-opacity="1"></stop><stop offset="80%" stop-color="#0093e0" stop-opacity="1"></stop></linearGradient></defs><defs><linearGradient id="grad1_4" x1="33.3%" y1="0%" x2="100%" y2="100%"><stop offset="20%" stop-color="#0082da" stop-opacity="1"></stop><stop offset="80%" stop-color="#0093e0" stop-opacity="1"></stop></linearGradient></defs><defs><linearGradient id="grad1_5" x1="33.3%" y1="0%" x2="100%" y2="100%"><stop offset="20%" stop-color="#0082da" stop-opacity="1"></stop><stop offset="80%" stop-color="#0071d3" stop-opacity="1"></stop></linearGradient></defs><defs><linearGradient id="grad1_6" x1="33.3%" y1="0%" x2="100%" y2="100%"><stop offset="20%" stop-color="#005fc8" stop-opacity="1"></stop><stop offset="80%" stop-color="#0071d3" stop-opacity="1"></stop></linearGradient></defs><defs><linearGradient id="grad1_7" x1="33.3%" y1="0%" x2="100%" y2="100%"><stop offset="20%" stop-color="#005fc8" stop-opacity="1"></stop><stop offset="80%" stop-color="#004cbb" stop-opacity="1"></stop></linearGradient></defs><defs><linearGradient id="grad2_0" x1="0%" y1="0%" x2="66.7%" y2="100%"><stop offset="20%" stop-color="#17c1e8" stop-opacity="1"></stop><stop offset="80%" stop-color="#17c1e8" stop-opacity="1"></stop></linearGradient></defs><defs><linearGradient id="grad2_1" x1="0%" y1="0%" x2="66.7%" y2="100%"><stop offset="20%" stop-color="#00b2e6" stop-opacity="1"></stop><stop offset="80%" stop-color="#17c1e8" stop-opacity="1"></stop></linearGradient></defs><defs><linearGradient id="grad2_2" x1="0%" y1="0%" x2="66.7%" y2="100%"><stop offset="20%" stop-color="#00b2e6" stop-opacity="1"></stop><stop offset="80%" stop-color="#00a2e3" stop-opacity="1"></stop></linearGradient></defs><defs><linearGradient id="grad2_3" x1="0%" y1="0%" x2="66.7%" y2="100%"><stop offset="20%" stop-color="#0093e0" stop-opacity="1"></stop><stop offset="80%" stop-color="#00a2e3" stop-opacity="1"></stop></linearGradient></defs><defs><linearGradient id="grad2_4" x1="0%" y1="0%" x2="66.7%" y2="100%"><stop offset="20%" stop-color="#0093e0" stop-opacity="1"></stop><stop offset="80%" stop-color="#0082da" stop-opacity="1"></stop></linearGradient></defs><defs><linearGradient id="grad2_5" x1="0%" y1="0%" x2="66.7%" y2="100%"><stop offset="20%" stop-color="#0071d3" stop-opacity="1"></stop><stop offset="80%" stop-color="#0082da" stop-opacity="1"></stop></linearGradient></defs><defs><linearGradient id="grad2_6" x1="0%" y1="0%" x2="66.7%" y2="100%"><stop offset="20%" stop-color="#0071d3" stop-opacity="1"></stop><stop offset="80%" stop-color="#005fc8" stop-opacity="1"></stop></linearGradient></defs><defs><linearGradient id="grad2_7" x1="0%" y1="0%" x2="66.7%" y2="100%"><stop offset="20%" stop-color="#004cbb" stop-opacity="1"></stop><stop offset="80%" stop-color="#005fc8" stop-opacity="1"></stop></linearGradient></defs><g transform="translate(900, 0)"><path d="M0 540.8C-34.9 494.9 -69.8 448.9 -118.8 443.4C-167.8 437.8 -231 472.5 -261.5 452.9C-292 433.3 -289.7 359.4 -325.3 325.3C-360.9 291.2 -434.4 296.9 -468.4 270.4C-502.4 243.9 -496.8 185 -502.3 134.6C-507.8 84.1 -524.3 42.1 -540.8 0L0 0Z" fill="#0056c2"></path><path d="M0 473.2C-30.5 433 -61 392.8 -103.9 387.9C-146.9 383 -202.2 413.5 -228.8 396.3C-255.5 379.2 -253.5 314.4 -284.6 284.6C-315.8 254.8 -380.1 259.8 -409.8 236.6C-439.6 213.4 -434.7 161.9 -439.5 117.8C-444.3 73.6 -458.8 36.8 -473.2 0L0 0Z" fill="#0068ce"></path><path d="M0 405.6C-26.2 371.2 -52.3 336.7 -89.1 332.5C-125.9 328.3 -173.3 354.4 -196.1 339.7C-219 325 -217.2 269.5 -244 244C-270.7 218.4 -325.8 222.7 -351.3 202.8C-376.8 182.9 -372.6 138.8 -376.7 100.9C-380.8 63.1 -393.2 31.5 -405.6 0L0 0Z" fill="#007ad7"></path><path d="M0 338C-21.8 309.3 -43.6 280.6 -74.2 277.1C-104.9 273.6 -144.4 295.3 -163.4 283.1C-182.5 270.8 -181 224.6 -203.3 203.3C-225.5 182 -271.5 185.6 -292.7 169C-314 152.4 -310.5 115.7 -313.9 84.1C-317.4 52.6 -327.7 26.3 -338 0L0 0Z" fill="#008add"></path><path d="M0 270.4C-17.4 247.4 -34.9 224.5 -59.4 221.7C-83.9 218.9 -115.5 236.3 -130.7 226.5C-146 216.7 -144.8 179.7 -162.6 162.6C-180.4 145.6 -217.2 148.5 -234.2 135.2C-251.2 121.9 -248.4 92.5 -251.1 67.3C-253.9 42.1 -262.2 21 -270.4 0L0 0Z" fill="#009be2"></path><path d="M0 202.8C-13.1 185.6 -26.2 168.4 -44.5 166.3C-62.9 164.2 -86.6 177.2 -98.1 169.8C-109.5 162.5 -108.6 134.8 -122 122C-135.3 109.2 -162.9 111.4 -175.6 101.4C-188.4 91.5 -186.3 69.4 -188.4 50.5C-190.4 31.5 -196.6 15.8 -202.8 0L0 0Z" fill="#00aae5"></path><path d="M0 135.2C-8.7 123.7 -17.4 112.2 -29.7 110.8C-42 109.4 -57.8 118.1 -65.4 113.2C-73 108.3 -72.4 89.8 -81.3 81.3C-90.2 72.8 -108.6 74.2 -117.1 67.6C-125.6 61 -124.2 46.3 -125.6 33.6C-126.9 21 -131.1 10.5 -135.2 0L0 0Z" fill="#00bae7"></path><path d="M0 67.6C-4.4 61.9 -8.7 56.1 -14.8 55.4C-21 54.7 -28.9 59.1 -32.7 56.6C-36.5 54.2 -36.2 44.9 -40.7 40.7C-45.1 36.4 -54.3 37.1 -58.5 33.8C-62.8 30.5 -62.1 23.1 -62.8 16.8C-63.5 10.5 -65.5 5.3 -67.6 0L0 0Z" fill="#17c1e8"></path></g><g transform="translate(0, 600)"><path d="M0 -540.8C51.7 -545.4 103.5 -550 140 -522.4C176.5 -494.8 197.7 -434.9 235.5 -407.9C273.3 -380.9 327.7 -386.8 366.3 -366.3C404.9 -345.8 427.7 -298.8 440.8 -254.5C453.9 -210.2 457.3 -168.5 472.3 -126.6C487.4 -84.6 514.1 -42.3 540.8 0L0 0Z" fill="#0056c2"></path><path d="M0 -473.2C45.3 -477.3 90.6 -481.3 122.5 -457.1C154.4 -432.9 173 -380.5 206.1 -356.9C239.1 -333.3 286.7 -338.5 320.5 -320.5C354.3 -302.5 374.2 -261.5 385.7 -222.7C397.2 -183.9 400.1 -147.5 413.3 -110.7C426.5 -74 449.8 -37 473.2 0L0 0Z" fill="#0068ce"></path><path d="M0 -405.6C38.8 -409.1 77.6 -412.5 105 -391.8C132.3 -371.1 148.3 -326.2 176.6 -305.9C205 -285.7 245.8 -290.1 274.7 -274.7C303.7 -259.3 320.8 -224.1 330.6 -190.9C340.4 -157.6 343 -126.4 354.3 -94.9C365.5 -63.4 385.6 -31.7 405.6 0L0 0Z" fill="#007ad7"></path><path d="M0 -338C32.3 -340.9 64.7 -343.8 87.5 -326.5C110.3 -309.2 123.6 -271.8 147.2 -254.9C170.8 -238.1 204.8 -241.8 228.9 -228.9C253.1 -216.1 267.3 -186.8 275.5 -159.1C283.7 -131.4 285.8 -105.3 295.2 -79.1C304.6 -52.9 321.3 -26.4 338 0L0 0Z" fill="#008add"></path><path d="M0 -270.4C25.9 -272.7 51.7 -275 70 -261.2C88.2 -247.4 98.8 -217.4 117.7 -203.9C136.7 -190.5 163.8 -193.4 183.1 -183.1C202.4 -172.9 213.9 -149.4 220.4 -127.3C227 -105.1 228.6 -84.3 236.2 -63.3C243.7 -42.3 257.1 -21.1 270.4 0L0 0Z" fill="#009be2"></path><path d="M0 -202.8C19.4 -204.5 38.8 -206.3 52.5 -195.9C66.2 -185.5 74.1 -163.1 88.3 -153C102.5 -142.8 122.9 -145.1 137.4 -137.4C151.8 -129.7 160.4 -112.1 165.3 -95.4C170.2 -78.8 171.5 -63.2 177.1 -47.5C182.8 -31.7 192.8 -15.9 202.8 0L0 0Z" fill="#00aae5"></path><path d="M0 -135.2C12.9 -136.4 25.9 -137.5 35 -130.6C44.1 -123.7 49.4 -108.7 58.9 -102C68.3 -95.2 81.9 -96.7 91.6 -91.6C101.2 -86.4 106.9 -74.7 110.2 -63.6C113.5 -52.5 114.3 -42.1 118.1 -31.6C121.8 -21.1 128.5 -10.6 135.2 0L0 0Z" fill="#00bae7"></path><path d="M0 -67.6C6.5 -68.2 12.9 -68.8 17.5 -65.3C22.1 -61.8 24.7 -54.4 29.4 -51C34.2 -47.6 41 -48.4 45.8 -45.8C50.6 -43.2 53.5 -37.4 55.1 -31.8C56.7 -26.3 57.2 -21.1 59 -15.8C60.9 -10.6 64.3 -5.3 67.6 0L0 0Z" fill="#17c1e8"></path></g></svg>