<svg id="visual" viewBox="0 0 900 600" width="900" height="600" xmlns="http://www.w3.org/2000/svg" xmlns:xlink="http://www.w3.org/1999/xlink" version="1.1"><path d="M0 247L13.7 242C27.3 237 54.7 227 82 221C109.3 215 136.7 213 163.8 210C191 207 218 203 245.2 203C272.3 203 299.7 207 327 208C354.3 209 381.7 207 409 203C436.3 199 463.7 193 491 175C518.3 157 545.7 127 573 131C600.3 135 627.7 173 654.8 197C682 221 709 231 736.2 230C763.3 229 790.7 217 818 210C845.3 203 872.7 201 886.3 200L900 199L900 0L886.3 0C872.7 0 845.3 0 818 0C790.7 0 763.3 0 736.2 0C709 0 682 0 654.8 0C627.7 0 600.3 0 573 0C545.7 0 518.3 0 491 0C463.7 0 436.3 0 409 0C381.7 0 354.3 0 327 0C299.7 0 272.3 0 245.2 0C218 0 191 0 163.8 0C136.7 0 109.3 0 82 0C54.7 0 27.3 0 13.7 0L0 0Z" fill="#004cbb"></path><path d="M0 373L13.7 361C27.3 349 54.7 325 82 309C109.3 293 136.7 285 163.8 292C191 299 218 321 245.2 327C272.3 333 299.7 323 327 309C354.3 295 381.7 277 409 265C436.3 253 463.7 247 491 242C518.3 237 545.7 233 573 240C600.3 247 627.7 265 654.8 286C682 307 709 331 736.2 332C763.3 333 790.7 311 818 308C845.3 305 872.7 321 886.3 329L900 337L900 197L886.3 198C872.7 199 845.3 201 818 208C790.7 215 763.3 227 736.2 228C709 229 682 219 654.8 195C627.7 171 600.3 133 573 129C545.7 125 518.3 155 491 173C463.7 191 436.3 197 409 201C381.7 205 354.3 207 327 206C299.7 205 272.3 201 245.2 201C218 201 191 205 163.8 208C136.7 211 109.3 213 82 219C54.7 225 27.3 235 13.7 240L0 245Z" fill="#0059dd"></path><path d="M0 463L13.7 445C27.3 427 54.7 391 82 370C109.3 349 136.7 343 163.8 350C191 357 218 377 245.2 388C272.3 399 299.7 401 327 393C354.3 385 381.7 367 409 348C436.3 329 463.7 309 491 302C518.3 295 545.7 301 573 316C600.3 331 627.7 355 654.8 377C682 399 709 419 736.2 410C763.3 401 790.7 363 818 352C845.3 341 872.7 357 886.3 365L900 373L900 335L886.3 327C872.7 319 845.3 303 818 306C790.7 309 763.3 331 736.2 330C709 329 682 305 654.8 284C627.7 263 600.3 245 573 238C545.7 231 518.3 235 491 240C463.7 245 436.3 251 409 263C381.7 275 354.3 293 327 307C299.7 321 272.3 331 245.2 325C218 319 191 297 163.8 290C136.7 283 109.3 291 82 307C54.7 323 27.3 347 13.7 359L0 371Z" fill="#0066ff"></path><path d="M0 505L13.7 498C27.3 491 54.7 477 82 465C109.3 453 136.7 443 163.8 442C191 441 218 449 245.2 460C272.3 471 299.7 485 327 481C354.3 477 381.7 455 409 440C436.3 425 463.7 417 491 413C518.3 409 545.7 409 573 418C600.3 427 627.7 445 654.8 460C682 475 709 487 736.2 473C763.3 459 790.7 419 818 419C845.3 419 872.7 459 886.3 479L900 499L900 371L886.3 363C872.7 355 845.3 339 818 350C790.7 361 763.3 399 736.2 408C709 417 682 397 654.8 375C627.7 353 600.3 329 573 314C545.7 299 518.3 293 491 300C463.7 307 436.3 327 409 346C381.7 365 354.3 383 327 391C299.7 399 272.3 397 245.2 386C218 375 191 355 163.8 348C136.7 341 109.3 347 82 368C54.7 389 27.3 425 13.7 443L0 461Z" fill="#3c80ff"></path><path d="M0 601L13.7 601C27.3 601 54.7 601 82 601C109.3 601 136.7 601 163.8 601C191 601 218 601 245.2 601C272.3 601 299.7 601 327 601C354.3 601 381.7 601 409 601C436.3 601 463.7 601 491 601C518.3 601 545.7 601 573 601C600.3 601 627.7 601 654.8 601C682 601 709 601 736.2 601C763.3 601 790.7 601 818 601C845.3 601 872.7 601 886.3 601L900 601L900 497L886.3 477C872.7 457 845.3 417 818 417C790.7 417 763.3 457 736.2 471C709 485 682 473 654.8 458C627.7 443 600.3 425 573 416C545.7 407 518.3 407 491 411C463.7 415 436.3 423 409 438C381.7 453 354.3 475 327 479C299.7 483 272.3 469 245.2 458C218 447 191 439 163.8 440C136.7 441 109.3 451 82 463C54.7 475 27.3 489 13.7 496L0 503Z" fill="#6198ff"></path></svg>